{"accessors":[{"name":"Shape01_1_positions","componentType":5126,"count":421,"min":[-35.130001068115234,-0.4228000044822693,-19.483800888061523],"max":[49.4385986328125,61.275001525878906,9.220499992370605],"type":"VEC3","bufferView":0,"byteOffset":0},{"name":"Shape01_1_0_indices","componentType":5123,"count":2274,"min":[0],"max":[420],"type":"SCALAR","bufferView":1,"byteOffset":0},{"name":"Group1_1_positions","componentType":5126,"count":47842,"min":[-50.08530044555664,-0.2922999858856201,-112.11900329589844],"max":[66.47460174560547,59.201499938964844,9.332799911499023],"type":"VEC3","bufferView":0,"byteOffset":5052},{"name":"Group1_1_0_indices","componentType":5123,"count":287076,"min":[0],"max":[47841],"type":"SCALAR","bufferView":1,"byteOffset":4548}],"asset":{"generator":"obj2gltf","version":"2.0"},"buffers":[{"name":"ring","byteLength":1157856,"uri":"data:application/octet-stream;base64,"}],"bufferViews":[{"name":"bufferView_0","buffer":0,"byteLength":579156,"byteOffset":0,"byteStride":12,"target":34962},{"name":"bufferView_1","buffer":0,"byteLength":578700,"byteOffset":579156,"target":34963}],"materials":[{"name":"wire_086086086","pbrMetallicRoughness":{"baseColorFactor":[0.3373,0.3373,0.3373,1],"metallicFactor":0,"roughnessFactor":0.968},"emissiveFactor":[0,0,0],"alphaMode":"OPAQUE","doubleSided":false},{"name":"wire_134110008","pbrMetallicRoughness":{"baseColorFactor":[0.5255,0.4314,0.0314,1],"metallicFactor":0,"roughnessFactor":0.968},"emissiveFactor":[0,0,0],"alphaMode":"OPAQUE","doubleSided":false}],"meshes":[{"name":"Shape01_1","primitives":[{"attributes":{"POSITION":0},"indices":1,"material":0,"mode":4}]},{"name":"Group1_1","primitives":[{"attributes":{"POSITION":2},"indices":3,"material":1,"mode":4}]}],"nodes":[{"name":"Shape01","mesh":0},{"name":"Group1","mesh":1}],"scene":0,"scenes":[{"nodes":[0,1]}]}
