{
    "accessors" : [
        {
            "bufferView" : 0, 
            "componentType" : 5123, 
            "count" : 73272, 
            "max" : [
                12207
            ], 
            "min" : [
                0
            ], 
            "type" : "SCALAR"
        }, 
        {
            "bufferView" : 1, 
            "componentType" : 5126, 
            "count" : 12208, 
            "max" : [
                0.5563958287239075, 
                0.39548617601394653, 
                0.4915820360183716
            ], 
            "min" : [
                -0.6090420484542847, 
                -0.19884705543518066, 
                -0.7227599620819092
            ], 
            "type" : "VEC3"
        }, 
        {
            "bufferView" : 2, 
            "componentType" : 5126, 
            "count" : 12208, 
            "max" : [
                0.99993896484375, 
                0.999969482421875, 
                0.999969482421875
            ], 
            "min" : [
                -0.999969482421875, 
                -0.99993896484375, 
                -0.99981689453125
            ], 
            "type" : "VEC3"
        }, 
        {
            "bufferView" : 3, 
            "componentType" : 5123, 
            "count" : 2274, 
            "max" : [
                607
            ], 
            "min" : [
                0
            ], 
            "type" : "SCALAR"
        }, 
        {
            "bufferView" : 4, 
            "componentType" : 5126, 
            "count" : 608, 
            "max" : [
                0.38619399070739746, 
                0.41673824191093445, 
                0.4906339943408966
            ], 
            "min" : [
                -0.45949119329452515, 
                -0.20023921132087708, 
                0.20359130203723907
            ], 
            "type" : "VEC3"
        }, 
        {
            "bufferView" : 5, 
            "componentType" : 5126, 
            "count" : 608, 
            "max" : [
                0.9986266493797302, 
                0.9468672871589661, 
                0.9977759718894958
            ], 
            "min" : [
                -0.9989928603172302, 
                -0.9299084544181824, 
                -0.9796748757362366
            ], 
            "type" : "VEC3"
        }
    ], 
    "asset" : {
        "generator" : "Khronos Blender glTF 2.0 exporter", 
        "version" : "2.0"
    }, 
    "bufferViews" : [
        {
            "buffer" : 0, 
            "byteLength" : 146544, 
            "byteOffset" : 0, 
            "target" : 34963
        }, 
        {
            "buffer" : 0, 
            "byteLength" : 146496, 
            "byteOffset" : 146544, 
            "target" : 34962
        }, 
        {
            "buffer" : 0, 
            "byteLength" : 146496, 
            "byteOffset" : 293040, 
            "target" : 34962
        }, 
        {
            "buffer" : 0, 
            "byteLength" : 4548, 
            "byteOffset" : 439536, 
            "target" : 34963
        }, 
        {
            "buffer" : 0, 
            "byteLength" : 7296, 
            "byteOffset" : 444084, 
            "target" : 34962
        }, 
        {
            "buffer" : 0, 
            "byteLength" : 7296, 
            "byteOffset" : 451380, 
            "target" : 34962
        }
    ], 
    "buffers" : [
        {
            "byteLength" : 458676, 
            "uri" : "ring_new.bin"
        }
    ], 
    "meshes" : [
        {
            "name" : "Group1", 
            "primitives" : [
                {
                    "attributes" : {
                        "NORMAL" : 2, 
                        "POSITION" : 1
                    }, 
                    "indices" : 0
                }
            ]
        }, 
        {
            "name" : "Shape01", 
            "primitives" : [
                {
                    "attributes" : {
                        "NORMAL" : 5, 
                        "POSITION" : 4
                    }, 
                    "indices" : 3
                }
            ]
        }
    ], 
    "nodes" : [
        {
            "name" : "Camera", 
            "rotation" : [
                0.483536034822464, 
                0.33687159419059753, 
                -0.20870360732078552, 
                0.7804827094078064
            ], 
            "translation" : [
                7.481131553649902, 
                5.34366512298584, 
                6.5076398849487305
            ]
        }, 
        {
            "mesh" : 0, 
            "name" : "Group1", 
            "translation" : [
                0.10819154977798462, 
                0.1960112303495407, 
                -0.3984290659427643
            ]
        }, 
        {
            "name" : "Lamp", 
            "rotation" : [
                0.16907575726509094, 
                0.7558802962303162, 
                -0.27217137813568115, 
                0.570947527885437
            ], 
            "scale" : [
                1.0, 
                1.0, 
                0.9999999403953552
            ], 
            "translation" : [
                4.076245307922363, 
                5.903861999511719, 
                -1.0054539442062378
            ]
        }, 
        {
            "mesh" : 1, 
            "name" : "Shape01", 
            "translation" : [
                0.10819154977798462, 
                0.1960112303495407, 
                -0.3984290659427643
            ]
        }
    ], 
    "scene" : 0, 
    "scenes" : [
        {
            "name" : "Scene", 
            "nodes" : [
                3, 
                1, 
                2, 
                0
            ]
        }
    ]
}
